<svg width="78" height="24" viewBox="0 0 78 24" fill="none" xmlns="http://www.w3.org/2000/svg"><g clip-path="url(#clip0_2202_40335)"><path d="M30.2788 12.0546C30.86 11.7246 31.3255 11.3137 31.6644 10.8292C32.0506 10.2775 32.2468 9.64737 32.2468 8.9574C32.2468 7.66561 31.7639 6.65733 30.8122 5.96008C29.8719 5.27091 28.5781 4.92188 26.9656 4.92188H21.1348V19.885H27.1986C28.8968 19.885 30.2565 19.4903 31.2397 18.7109C32.2306 17.9251 32.7338 16.8246 32.7338 15.4394C32.7338 14.5961 32.4972 13.8706 32.0312 13.2833C31.613 12.7583 31.0246 12.3454 30.2792 12.0546H30.2788ZM24.2902 7.61869H26.712C27.4716 7.61869 28.0451 7.76591 28.4175 8.05549C28.7856 8.34143 28.9644 8.71716 28.9644 9.2037C28.9644 9.69024 28.7856 10.085 28.4175 10.3721C28.0451 10.6617 27.4716 10.8089 26.712 10.8089H24.2902V7.61869ZM28.8495 16.681C28.4297 17.0175 27.7886 17.1878 26.9446 17.1878H24.2902V13.526H26.9446C27.7882 13.526 28.4301 13.6906 28.8515 14.0137C29.2693 14.3361 29.4723 14.7615 29.4723 15.316C29.4723 15.8992 29.2685 16.3457 28.8495 16.6814V16.681Z" fill="currentColor"></path><path d="M36.9968 8.69531H33.8203V19.8838H36.9968V8.69531Z" fill="currentColor"></path><path d="M68.3694 10.3786C67.8666 9.78 67.2365 9.31085 66.4964 8.98365C65.7571 8.65686 64.9255 8.49023 64.0261 8.49023C62.9235 8.49023 61.929 8.74058 61.0692 9.234C60.2073 9.72904 59.5234 10.4166 59.0356 11.2789C58.5479 12.1403 58.3008 13.1401 58.3008 14.2495C58.3008 15.3589 58.5406 16.4246 59.0134 17.2994C59.4874 18.177 60.1689 18.8654 61.0384 19.3471C61.9064 19.8259 62.926 20.069 64.0685 20.069C65.4711 20.069 66.6618 19.7163 67.6082 19.0203C68.5198 18.3505 69.1467 17.4057 69.488 16.2232H66.2901C66.1219 16.6256 65.8849 16.9681 65.5455 17.2096C65.1443 17.4943 64.6262 17.6387 64.005 17.6387C63.4663 17.6387 63.0048 17.5077 62.6332 17.2496C62.2599 16.9916 61.9747 16.6102 61.7875 16.1148C61.675 15.8203 61.5954 15.4818 61.5484 15.1053H69.5439L69.5596 15.0058C69.7024 14.1035 69.6664 13.2485 69.4512 12.4647C69.2357 11.6789 68.8717 10.9771 68.3694 10.3786ZM61.599 13.0337C61.6479 12.806 61.7139 12.569 61.7976 12.3531C61.9925 11.8511 62.274 11.4649 62.6348 11.2069C62.9939 10.9488 63.4408 10.8186 63.9634 10.8186C64.6182 10.8186 65.1557 11.0309 65.5609 11.4487C65.9451 11.8463 66.1631 12.3895 66.2096 13.0337H61.5994H61.599Z" fill="currentColor"></path><path d="M37.065 4.92188H33.7559V7.61869H37.065V4.92188Z" fill="currentColor"></path><path d="M54.4566 9.96523C54.0809 9.51388 53.6405 9.16403 53.1438 8.92218C52.5509 8.63543 51.8573 8.49023 51.082 8.49023C50.1327 8.49023 49.2818 8.72441 48.5538 9.18547C47.8266 9.64613 47.2499 10.2973 46.8402 11.1195C46.4321 11.9397 46.2246 12.9027 46.2246 13.983C46.2246 15.0632 46.4426 15.9696 46.8729 16.7954C47.3041 17.6241 47.9018 18.2842 48.6492 18.7582C49.3983 19.2334 50.2524 19.4745 51.1883 19.4745C51.8949 19.4745 52.5404 19.3216 53.1058 19.0195C53.5535 18.7804 53.9284 18.4642 54.2241 18.0779V19.2961C54.2241 20.0512 54.0255 20.6308 53.6352 21.017C53.2437 21.4033 52.6484 21.5982 51.8654 21.5982C51.1908 21.5982 50.6601 21.4453 50.2888 21.1432C49.9851 20.8961 49.7198 20.5717 49.6579 19.885H46.5955C46.6238 20.8459 46.9061 21.4934 47.3045 22.0609C47.7514 22.6967 48.3799 23.1937 49.1742 23.5371C49.9608 23.8764 50.8737 24.0487 51.8868 24.0487C53.5875 24.0487 54.9415 23.6212 55.9102 22.7792C56.8849 21.9323 57.3791 20.7464 57.3791 19.2553V8.69569H54.4566V9.96523ZM53.8973 15.4693C53.6959 15.885 53.4115 16.211 53.0512 16.4367C52.6912 16.6624 52.2569 16.7772 51.7594 16.7772C51.0403 16.7772 50.4814 16.5326 50.0494 16.0286C49.6191 15.5275 49.4011 14.8392 49.4011 13.9826C49.4011 13.1259 49.6191 12.4376 50.0494 11.9357C50.4757 11.4386 51.0512 11.1871 51.7594 11.1871C52.4676 11.1871 53.0932 11.4423 53.5333 11.947C53.9774 12.4558 54.2026 13.1478 54.2026 14.0024C54.2026 14.5561 54.0999 15.0491 53.8973 15.4689V15.4693Z" fill="currentColor"></path><path d="M77.2503 11.3723V8.69653H74.9575V4.92188H71.8021V8.69653H69.8438V11.3723H71.8021V15.7524C71.8021 18.1876 72.2817 19.9772 75.2718 19.9218L77.1488 19.885V17.3763H76.2174C74.8884 17.3763 74.9624 16.6013 74.9624 15.1623L74.9571 11.3723H77.2499H77.2503Z" fill="currentColor"></path><path d="M45.4573 11.3723V8.69653H43.1645V4.92188H40.0091V8.69653H38.0508V11.3723H40.0091V15.7524C40.0091 18.1876 40.4888 19.9772 43.4788 19.9218L45.3558 19.885V17.3763H44.4244C43.0954 17.3763 43.1694 16.6013 43.1694 15.1623L43.1641 11.3723H45.4569H45.4573Z" fill="currentColor"></path><path d="M7.92136 7.61759H12.6861L17.5604 12.4608C17.8775 12.7758 17.8791 13.2883 17.5637 13.6049L11.3126 19.8875H6.4043L7.88819 18.4449L13.3364 13.031L7.95735 7.61719" fill="currentColor"></path><path d="M9.87789 13.0204H5.11316L0.238826 8.17717C-0.078256 7.86211 -0.0798738 7.34968 0.235591 7.033L6.48664 0.75H11.3949L9.91105 2.19264L4.46282 7.6065L9.84189 13.0204" fill="currentColor"></path></g><defs><clipPath id="clip0_2202_40335"><rect width="77.25" height="24" fill="white"></rect></clipPath></defs></svg>